<svg xmlns="http://www.w3.org/2000/svg" width="1400" height="840" viewBox="0 0 1400 840">
                    <defs>
                      <marker id="arrow" markerWidth="8" markerHeight="8" refX="6" refY="3" orient="auto">
                        <path d="M0,0 L0,6 L6,3 z" fill="#444" />
                      </marker>
                    </defs>
                    <rect width="100%" height="100%" fill="#ffffff"/>
                    <text x="20" y="25" font-size="18" font-weight="bold" fill="#111">Árbol de Huffman</text>
                    <line x1="700.0" y1="50.0" x2="375.0" y2="170.0" stroke="#444" stroke-width="2" marker-end="url(#arrow)" /><text x="537.5" y="102.0" text-anchor="middle" font-size="12" fill="#222">0</text><line x1="700.0" y1="50.0" x2="1025.0" y2="170.0" stroke="#444" stroke-width="2" marker-end="url(#arrow)" /><text x="862.5" y="102.0" text-anchor="middle" font-size="12" fill="#222">1</text><line x1="375.0" y1="170.0" x2="212.5" y2="290.0" stroke="#444" stroke-width="2" marker-end="url(#arrow)" /><text x="293.8" y="222.0" text-anchor="middle" font-size="12" fill="#222">0</text><line x1="375.0" y1="170.0" x2="537.5" y2="290.0" stroke="#444" stroke-width="2" marker-end="url(#arrow)" /><text x="456.2" y="222.0" text-anchor="middle" font-size="12" fill="#222">1</text><line x1="1025.0" y1="170.0" x2="862.5" y2="290.0" stroke="#444" stroke-width="2" marker-end="url(#arrow)" /><text x="943.8" y="222.0" text-anchor="middle" font-size="12" fill="#222">0</text><line x1="1025.0" y1="170.0" x2="1187.5" y2="290.0" stroke="#444" stroke-width="2" marker-end="url(#arrow)" /><text x="1106.2" y="222.0" text-anchor="middle" font-size="12" fill="#222">1</text><line x1="212.5" y1="290.0" x2="131.2" y2="410.0" stroke="#444" stroke-width="2" marker-end="url(#arrow)" /><text x="171.9" y="342.0" text-anchor="middle" font-size="12" fill="#222">0</text><line x1="212.5" y1="290.0" x2="293.8" y2="410.0" stroke="#444" stroke-width="2" marker-end="url(#arrow)" /><text x="253.1" y="342.0" text-anchor="middle" font-size="12" fill="#222">1</text><line x1="537.5" y1="290.0" x2="456.2" y2="410.0" stroke="#444" stroke-width="2" marker-end="url(#arrow)" /><text x="496.9" y="342.0" text-anchor="middle" font-size="12" fill="#222">0</text><line x1="537.5" y1="290.0" x2="618.8" y2="410.0" stroke="#444" stroke-width="2" marker-end="url(#arrow)" /><text x="578.1" y="342.0" text-anchor="middle" font-size="12" fill="#222">1</text><line x1="862.5" y1="290.0" x2="781.2" y2="410.0" stroke="#444" stroke-width="2" marker-end="url(#arrow)" /><text x="821.9" y="342.0" text-anchor="middle" font-size="12" fill="#222">0</text><line x1="862.5" y1="290.0" x2="943.8" y2="410.0" stroke="#444" stroke-width="2" marker-end="url(#arrow)" /><text x="903.1" y="342.0" text-anchor="middle" font-size="12" fill="#222">1</text><line x1="1187.5" y1="290.0" x2="1106.2" y2="410.0" stroke="#444" stroke-width="2" marker-end="url(#arrow)" /><text x="1146.9" y="342.0" text-anchor="middle" font-size="12" fill="#222">0</text><line x1="1187.5" y1="290.0" x2="1268.8" y2="410.0" stroke="#444" stroke-width="2" marker-end="url(#arrow)" /><text x="1228.1" y="342.0" text-anchor="middle" font-size="12" fill="#222">1</text><line x1="131.2" y1="410.0" x2="115.0" y2="530.0" stroke="#444" stroke-width="2" marker-end="url(#arrow)" /><text x="123.1" y="462.0" text-anchor="middle" font-size="12" fill="#222">0</text><line x1="131.2" y1="410.0" x2="245.0" y2="530.0" stroke="#444" stroke-width="2" marker-end="url(#arrow)" /><text x="188.1" y="462.0" text-anchor="middle" font-size="12" fill="#222">1</text><line x1="293.8" y1="410.0" x2="375.0" y2="530.0" stroke="#444" stroke-width="2" marker-end="url(#arrow)" /><text x="334.4" y="462.0" text-anchor="middle" font-size="12" fill="#222">0</text><line x1="293.8" y1="410.0" x2="505.0" y2="530.0" stroke="#444" stroke-width="2" marker-end="url(#arrow)" /><text x="399.4" y="462.0" text-anchor="middle" font-size="12" fill="#222">1</text><line x1="781.2" y1="410.0" x2="635.0" y2="530.0" stroke="#444" stroke-width="2" marker-end="url(#arrow)" /><text x="708.1" y="462.0" text-anchor="middle" font-size="12" fill="#222">0</text><line x1="781.2" y1="410.0" x2="765.0" y2="530.0" stroke="#444" stroke-width="2" marker-end="url(#arrow)" /><text x="773.1" y="462.0" text-anchor="middle" font-size="12" fill="#222">1</text><line x1="1106.2" y1="410.0" x2="895.0" y2="530.0" stroke="#444" stroke-width="2" marker-end="url(#arrow)" /><text x="1000.6" y="462.0" text-anchor="middle" font-size="12" fill="#222">0</text><line x1="1106.2" y1="410.0" x2="1025.0" y2="530.0" stroke="#444" stroke-width="2" marker-end="url(#arrow)" /><text x="1065.6" y="462.0" text-anchor="middle" font-size="12" fill="#222">1</text><line x1="1268.8" y1="410.0" x2="1155.0" y2="530.0" stroke="#444" stroke-width="2" marker-end="url(#arrow)" /><text x="1211.9" y="462.0" text-anchor="middle" font-size="12" fill="#222">0</text><line x1="1268.8" y1="410.0" x2="1285.0" y2="530.0" stroke="#444" stroke-width="2" marker-end="url(#arrow)" /><text x="1276.9" y="462.0" text-anchor="middle" font-size="12" fill="#222">1</text><line x1="375.0" y1="530.0" x2="158.3" y2="650.0" stroke="#444" stroke-width="2" marker-end="url(#arrow)" /><text x="266.7" y="582.0" text-anchor="middle" font-size="12" fill="#222">0</text><line x1="375.0" y1="530.0" x2="375.0" y2="650.0" stroke="#444" stroke-width="2" marker-end="url(#arrow)" /><text x="375.0" y="582.0" text-anchor="middle" font-size="12" fill="#222">1</text><line x1="505.0" y1="530.0" x2="591.7" y2="650.0" stroke="#444" stroke-width="2" marker-end="url(#arrow)" /><text x="548.3" y="582.0" text-anchor="middle" font-size="12" fill="#222">0</text><line x1="505.0" y1="530.0" x2="808.3" y2="650.0" stroke="#444" stroke-width="2" marker-end="url(#arrow)" /><text x="656.7" y="582.0" text-anchor="middle" font-size="12" fill="#222">1</text><line x1="895.0" y1="530.0" x2="1025.0" y2="650.0" stroke="#444" stroke-width="2" marker-end="url(#arrow)" /><text x="960.0" y="582.0" text-anchor="middle" font-size="12" fill="#222">0</text><line x1="895.0" y1="530.0" x2="1241.7" y2="650.0" stroke="#444" stroke-width="2" marker-end="url(#arrow)" /><text x="1068.3" y="582.0" text-anchor="middle" font-size="12" fill="#222">1</text>
                    <ellipse cx="700.0" cy="50.0" rx="22" ry="22" fill="#f3f4f6" stroke="#111" stroke-width="2" /><ellipse cx="375.0" cy="170.0" rx="18" ry="18" fill="#eef2ff" stroke="#6b7280" stroke-width="1.5" /><ellipse cx="1025.0" cy="170.0" rx="18" ry="18" fill="#eef2ff" stroke="#6b7280" stroke-width="1.5" /><ellipse cx="212.5" cy="290.0" rx="18" ry="18" fill="#eef2ff" stroke="#6b7280" stroke-width="1.5" /><ellipse cx="537.5" cy="290.0" rx="18" ry="18" fill="#eef2ff" stroke="#6b7280" stroke-width="1.5" /><ellipse cx="862.5" cy="290.0" rx="18" ry="18" fill="#eef2ff" stroke="#6b7280" stroke-width="1.5" /><ellipse cx="1187.5" cy="290.0" rx="18" ry="18" fill="#eef2ff" stroke="#6b7280" stroke-width="1.5" /><ellipse cx="131.2" cy="410.0" rx="18" ry="18" fill="#eef2ff" stroke="#6b7280" stroke-width="1.5" /><ellipse cx="293.8" cy="410.0" rx="18" ry="18" fill="#eef2ff" stroke="#6b7280" stroke-width="1.5" /><ellipse cx="456.2" cy="410.0" rx="22" ry="22" fill="#dbeafe" stroke="#1d4ed8" stroke-width="2" /><ellipse cx="618.8" cy="410.0" rx="22" ry="22" fill="#dbeafe" stroke="#1d4ed8" stroke-width="2" /><ellipse cx="781.2" cy="410.0" rx="18" ry="18" fill="#eef2ff" stroke="#6b7280" stroke-width="1.5" /><ellipse cx="943.8" cy="410.0" rx="22" ry="22" fill="#dbeafe" stroke="#1d4ed8" stroke-width="2" /><ellipse cx="1106.2" cy="410.0" rx="18" ry="18" fill="#eef2ff" stroke="#6b7280" stroke-width="1.5" /><ellipse cx="1268.8" cy="410.0" rx="18" ry="18" fill="#eef2ff" stroke="#6b7280" stroke-width="1.5" /><ellipse cx="115.0" cy="530.0" rx="22" ry="22" fill="#dbeafe" stroke="#1d4ed8" stroke-width="2" /><ellipse cx="245.0" cy="530.0" rx="22" ry="22" fill="#dbeafe" stroke="#1d4ed8" stroke-width="2" /><ellipse cx="375.0" cy="530.0" rx="18" ry="18" fill="#eef2ff" stroke="#6b7280" stroke-width="1.5" /><ellipse cx="505.0" cy="530.0" rx="18" ry="18" fill="#eef2ff" stroke="#6b7280" stroke-width="1.5" /><ellipse cx="635.0" cy="530.0" rx="22" ry="22" fill="#dbeafe" stroke="#1d4ed8" stroke-width="2" /><ellipse cx="765.0" cy="530.0" rx="22" ry="22" fill="#dbeafe" stroke="#1d4ed8" stroke-width="2" /><ellipse cx="895.0" cy="530.0" rx="18" ry="18" fill="#eef2ff" stroke="#6b7280" stroke-width="1.5" /><ellipse cx="1025.0" cy="530.0" rx="22" ry="22" fill="#dbeafe" stroke="#1d4ed8" stroke-width="2" /><ellipse cx="1155.0" cy="530.0" rx="22" ry="22" fill="#dbeafe" stroke="#1d4ed8" stroke-width="2" /><ellipse cx="1285.0" cy="530.0" rx="22" ry="22" fill="#dbeafe" stroke="#1d4ed8" stroke-width="2" /><ellipse cx="158.3" cy="650.0" rx="22" ry="22" fill="#dbeafe" stroke="#1d4ed8" stroke-width="2" /><ellipse cx="375.0" cy="650.0" rx="22" ry="22" fill="#dbeafe" stroke="#1d4ed8" stroke-width="2" /><ellipse cx="591.7" cy="650.0" rx="22" ry="22" fill="#dbeafe" stroke="#1d4ed8" stroke-width="2" /><ellipse cx="808.3" cy="650.0" rx="22" ry="22" fill="#dbeafe" stroke="#1d4ed8" stroke-width="2" /><ellipse cx="1025.0" cy="650.0" rx="22" ry="22" fill="#dbeafe" stroke="#1d4ed8" stroke-width="2" /><ellipse cx="1241.7" cy="650.0" rx="22" ry="22" fill="#dbeafe" stroke="#1d4ed8" stroke-width="2" />
                    <text x="700.0" y="50.0" text-anchor="middle" dominant-baseline="middle" font-size="12" fill="#111">Raíz</text><text x="456.2" y="410.0" text-anchor="middle" dominant-baseline="middle" font-size="14" fill="#111">d</text><text x="618.8" y="410.0" text-anchor="middle" dominant-baseline="middle" font-size="14" fill="#111"> </text><text x="943.8" y="410.0" text-anchor="middle" dominant-baseline="middle" font-size="14" fill="#111">a</text><text x="115.0" y="530.0" text-anchor="middle" dominant-baseline="middle" font-size="14" fill="#111">s</text><text x="245.0" y="530.0" text-anchor="middle" dominant-baseline="middle" font-size="14" fill="#111">f</text><text x="635.0" y="530.0" text-anchor="middle" dominant-baseline="middle" font-size="14" fill="#111">o</text><text x="765.0" y="530.0" text-anchor="middle" dominant-baseline="middle" font-size="14" fill="#111">i</text><text x="1025.0" y="530.0" text-anchor="middle" dominant-baseline="middle" font-size="14" fill="#111">e</text><text x="1155.0" y="530.0" text-anchor="middle" dominant-baseline="middle" font-size="14" fill="#111">c</text><text x="1285.0" y="530.0" text-anchor="middle" dominant-baseline="middle" font-size="14" fill="#111">n</text><text x="158.3" y="650.0" text-anchor="middle" dominant-baseline="middle" font-size="14" fill="#111">L</text><text x="375.0" y="650.0" text-anchor="middle" dominant-baseline="middle" font-size="14" fill="#111">u</text><text x="591.7" y="650.0" text-anchor="middle" dominant-baseline="middle" font-size="14" fill="#111">m</text><text x="808.3" y="650.0" text-anchor="middle" dominant-baseline="middle" font-size="14" fill="#111">ó</text><text x="1025.0" y="650.0" text-anchor="middle" dominant-baseline="middle" font-size="14" fill="#111">l</text><text x="1241.7" y="650.0" text-anchor="middle" dominant-baseline="middle" font-size="14" fill="#111">t</text>
                  </svg>