<svg xmlns="http://www.w3.org/2000/svg" width="1680" height="840" viewBox="0 0 1680 840">
                    <defs>
                      <marker id="arrow" markerWidth="8" markerHeight="8" refX="6" refY="3" orient="auto">
                        <path d="M0,0 L0,6 L6,3 z" fill="#444" />
                      </marker>
                    </defs>
                    <rect width="100%" height="100%" fill="#ffffff"/>
                    <text x="20" y="25" font-size="18" font-weight="bold" fill="#111">Árbol de Huffman</text>
                    <line x1="840.0" y1="50.0" x2="445.0" y2="170.0" stroke="#444" stroke-width="2" marker-end="url(#arrow)" /><text x="642.5" y="102.0" text-anchor="middle" font-size="12" fill="#222">0</text><line x1="840.0" y1="50.0" x2="1235.0" y2="170.0" stroke="#444" stroke-width="2" marker-end="url(#arrow)" /><text x="1037.5" y="102.0" text-anchor="middle" font-size="12" fill="#222">1</text><line x1="445.0" y1="170.0" x2="247.5" y2="290.0" stroke="#444" stroke-width="2" marker-end="url(#arrow)" /><text x="346.2" y="222.0" text-anchor="middle" font-size="12" fill="#222">0</text><line x1="445.0" y1="170.0" x2="642.5" y2="290.0" stroke="#444" stroke-width="2" marker-end="url(#arrow)" /><text x="543.8" y="222.0" text-anchor="middle" font-size="12" fill="#222">1</text><line x1="1235.0" y1="170.0" x2="1037.5" y2="290.0" stroke="#444" stroke-width="2" marker-end="url(#arrow)" /><text x="1136.2" y="222.0" text-anchor="middle" font-size="12" fill="#222">0</text><line x1="1235.0" y1="170.0" x2="1432.5" y2="290.0" stroke="#444" stroke-width="2" marker-end="url(#arrow)" /><text x="1333.8" y="222.0" text-anchor="middle" font-size="12" fill="#222">1</text><line x1="247.5" y1="290.0" x2="148.8" y2="410.0" stroke="#444" stroke-width="2" marker-end="url(#arrow)" /><text x="198.1" y="342.0" text-anchor="middle" font-size="12" fill="#222">0</text><line x1="247.5" y1="290.0" x2="346.2" y2="410.0" stroke="#444" stroke-width="2" marker-end="url(#arrow)" /><text x="296.9" y="342.0" text-anchor="middle" font-size="12" fill="#222">1</text><line x1="642.5" y1="290.0" x2="543.8" y2="410.0" stroke="#444" stroke-width="2" marker-end="url(#arrow)" /><text x="593.1" y="342.0" text-anchor="middle" font-size="12" fill="#222">0</text><line x1="642.5" y1="290.0" x2="741.2" y2="410.0" stroke="#444" stroke-width="2" marker-end="url(#arrow)" /><text x="691.9" y="342.0" text-anchor="middle" font-size="12" fill="#222">1</text><line x1="1037.5" y1="290.0" x2="938.8" y2="410.0" stroke="#444" stroke-width="2" marker-end="url(#arrow)" /><text x="988.1" y="342.0" text-anchor="middle" font-size="12" fill="#222">0</text><line x1="1037.5" y1="290.0" x2="1136.2" y2="410.0" stroke="#444" stroke-width="2" marker-end="url(#arrow)" /><text x="1086.9" y="342.0" text-anchor="middle" font-size="12" fill="#222">1</text><line x1="1432.5" y1="290.0" x2="1333.8" y2="410.0" stroke="#444" stroke-width="2" marker-end="url(#arrow)" /><text x="1383.1" y="342.0" text-anchor="middle" font-size="12" fill="#222">0</text><line x1="1432.5" y1="290.0" x2="1531.2" y2="410.0" stroke="#444" stroke-width="2" marker-end="url(#arrow)" /><text x="1481.9" y="342.0" text-anchor="middle" font-size="12" fill="#222">1</text><line x1="148.8" y1="410.0" x2="115.8" y2="530.0" stroke="#444" stroke-width="2" marker-end="url(#arrow)" /><text x="132.3" y="462.0" text-anchor="middle" font-size="12" fill="#222">0</text><line x1="148.8" y1="410.0" x2="247.5" y2="530.0" stroke="#444" stroke-width="2" marker-end="url(#arrow)" /><text x="198.1" y="462.0" text-anchor="middle" font-size="12" fill="#222">1</text><line x1="346.2" y1="410.0" x2="379.2" y2="530.0" stroke="#444" stroke-width="2" marker-end="url(#arrow)" /><text x="362.7" y="462.0" text-anchor="middle" font-size="12" fill="#222">0</text><line x1="346.2" y1="410.0" x2="510.8" y2="530.0" stroke="#444" stroke-width="2" marker-end="url(#arrow)" /><text x="428.5" y="462.0" text-anchor="middle" font-size="12" fill="#222">1</text><line x1="543.8" y1="410.0" x2="642.5" y2="530.0" stroke="#444" stroke-width="2" marker-end="url(#arrow)" /><text x="593.1" y="462.0" text-anchor="middle" font-size="12" fill="#222">0</text><line x1="543.8" y1="410.0" x2="774.2" y2="530.0" stroke="#444" stroke-width="2" marker-end="url(#arrow)" /><text x="659.0" y="462.0" text-anchor="middle" font-size="12" fill="#222">1</text><line x1="938.8" y1="410.0" x2="905.8" y2="530.0" stroke="#444" stroke-width="2" marker-end="url(#arrow)" /><text x="922.3" y="462.0" text-anchor="middle" font-size="12" fill="#222">0</text><line x1="938.8" y1="410.0" x2="1037.5" y2="530.0" stroke="#444" stroke-width="2" marker-end="url(#arrow)" /><text x="988.1" y="462.0" text-anchor="middle" font-size="12" fill="#222">1</text><line x1="1333.8" y1="410.0" x2="1169.2" y2="530.0" stroke="#444" stroke-width="2" marker-end="url(#arrow)" /><text x="1251.5" y="462.0" text-anchor="middle" font-size="12" fill="#222">0</text><line x1="1333.8" y1="410.0" x2="1300.8" y2="530.0" stroke="#444" stroke-width="2" marker-end="url(#arrow)" /><text x="1317.3" y="462.0" text-anchor="middle" font-size="12" fill="#222">1</text><line x1="1531.2" y1="410.0" x2="1432.5" y2="530.0" stroke="#444" stroke-width="2" marker-end="url(#arrow)" /><text x="1481.9" y="462.0" text-anchor="middle" font-size="12" fill="#222">0</text><line x1="1531.2" y1="410.0" x2="1564.2" y2="530.0" stroke="#444" stroke-width="2" marker-end="url(#arrow)" /><text x="1547.7" y="462.0" text-anchor="middle" font-size="12" fill="#222">1</text><line x1="247.5" y1="530.0" x2="181.7" y2="650.0" stroke="#444" stroke-width="2" marker-end="url(#arrow)" /><text x="214.6" y="582.0" text-anchor="middle" font-size="12" fill="#222">0</text><line x1="247.5" y1="530.0" x2="445.0" y2="650.0" stroke="#444" stroke-width="2" marker-end="url(#arrow)" /><text x="346.2" y="582.0" text-anchor="middle" font-size="12" fill="#222">1</text><line x1="642.5" y1="530.0" x2="708.3" y2="650.0" stroke="#444" stroke-width="2" marker-end="url(#arrow)" /><text x="675.4" y="582.0" text-anchor="middle" font-size="12" fill="#222">0</text><line x1="642.5" y1="530.0" x2="971.7" y2="650.0" stroke="#444" stroke-width="2" marker-end="url(#arrow)" /><text x="807.1" y="582.0" text-anchor="middle" font-size="12" fill="#222">1</text><line x1="905.8" y1="530.0" x2="1235.0" y2="650.0" stroke="#444" stroke-width="2" marker-end="url(#arrow)" /><text x="1070.4" y="582.0" text-anchor="middle" font-size="12" fill="#222">0</text><line x1="905.8" y1="530.0" x2="1498.3" y2="650.0" stroke="#444" stroke-width="2" marker-end="url(#arrow)" /><text x="1202.1" y="582.0" text-anchor="middle" font-size="12" fill="#222">1</text>
                    <ellipse cx="840.0" cy="50.0" rx="22" ry="22" fill="#f3f4f6" stroke="#111" stroke-width="2" /><ellipse cx="445.0" cy="170.0" rx="18" ry="18" fill="#eef2ff" stroke="#6b7280" stroke-width="1.5" /><ellipse cx="1235.0" cy="170.0" rx="18" ry="18" fill="#eef2ff" stroke="#6b7280" stroke-width="1.5" /><ellipse cx="247.5" cy="290.0" rx="18" ry="18" fill="#eef2ff" stroke="#6b7280" stroke-width="1.5" /><ellipse cx="642.5" cy="290.0" rx="18" ry="18" fill="#eef2ff" stroke="#6b7280" stroke-width="1.5" /><ellipse cx="1037.5" cy="290.0" rx="18" ry="18" fill="#eef2ff" stroke="#6b7280" stroke-width="1.5" /><ellipse cx="1432.5" cy="290.0" rx="18" ry="18" fill="#eef2ff" stroke="#6b7280" stroke-width="1.5" /><ellipse cx="148.8" cy="410.0" rx="18" ry="18" fill="#eef2ff" stroke="#6b7280" stroke-width="1.5" /><ellipse cx="346.2" cy="410.0" rx="18" ry="18" fill="#eef2ff" stroke="#6b7280" stroke-width="1.5" /><ellipse cx="543.8" cy="410.0" rx="18" ry="18" fill="#eef2ff" stroke="#6b7280" stroke-width="1.5" /><ellipse cx="741.2" cy="410.0" rx="22" ry="22" fill="#dbeafe" stroke="#1d4ed8" stroke-width="2" /><ellipse cx="938.8" cy="410.0" rx="18" ry="18" fill="#eef2ff" stroke="#6b7280" stroke-width="1.5" /><ellipse cx="1136.2" cy="410.0" rx="22" ry="22" fill="#dbeafe" stroke="#1d4ed8" stroke-width="2" /><ellipse cx="1333.8" cy="410.0" rx="18" ry="18" fill="#eef2ff" stroke="#6b7280" stroke-width="1.5" /><ellipse cx="1531.2" cy="410.0" rx="18" ry="18" fill="#eef2ff" stroke="#6b7280" stroke-width="1.5" /><ellipse cx="115.8" cy="530.0" rx="22" ry="22" fill="#dbeafe" stroke="#1d4ed8" stroke-width="2" /><ellipse cx="247.5" cy="530.0" rx="18" ry="18" fill="#eef2ff" stroke="#6b7280" stroke-width="1.5" /><ellipse cx="379.2" cy="530.0" rx="22" ry="22" fill="#dbeafe" stroke="#1d4ed8" stroke-width="2" /><ellipse cx="510.8" cy="530.0" rx="22" ry="22" fill="#dbeafe" stroke="#1d4ed8" stroke-width="2" /><ellipse cx="642.5" cy="530.0" rx="18" ry="18" fill="#eef2ff" stroke="#6b7280" stroke-width="1.5" /><ellipse cx="774.2" cy="530.0" rx="22" ry="22" fill="#dbeafe" stroke="#1d4ed8" stroke-width="2" /><ellipse cx="905.8" cy="530.0" rx="18" ry="18" fill="#eef2ff" stroke="#6b7280" stroke-width="1.5" /><ellipse cx="1037.5" cy="530.0" rx="22" ry="22" fill="#dbeafe" stroke="#1d4ed8" stroke-width="2" /><ellipse cx="1169.2" cy="530.0" rx="22" ry="22" fill="#dbeafe" stroke="#1d4ed8" stroke-width="2" /><ellipse cx="1300.8" cy="530.0" rx="22" ry="22" fill="#dbeafe" stroke="#1d4ed8" stroke-width="2" /><ellipse cx="1432.5" cy="530.0" rx="22" ry="22" fill="#dbeafe" stroke="#1d4ed8" stroke-width="2" /><ellipse cx="1564.2" cy="530.0" rx="22" ry="22" fill="#dbeafe" stroke="#1d4ed8" stroke-width="2" /><ellipse cx="181.7" cy="650.0" rx="22" ry="22" fill="#dbeafe" stroke="#1d4ed8" stroke-width="2" /><ellipse cx="445.0" cy="650.0" rx="22" ry="22" fill="#dbeafe" stroke="#1d4ed8" stroke-width="2" /><ellipse cx="708.3" cy="650.0" rx="22" ry="22" fill="#dbeafe" stroke="#1d4ed8" stroke-width="2" /><ellipse cx="971.7" cy="650.0" rx="22" ry="22" fill="#dbeafe" stroke="#1d4ed8" stroke-width="2" /><ellipse cx="1235.0" cy="650.0" rx="22" ry="22" fill="#dbeafe" stroke="#1d4ed8" stroke-width="2" /><ellipse cx="1498.3" cy="650.0" rx="22" ry="22" fill="#dbeafe" stroke="#1d4ed8" stroke-width="2" />
                    <text x="840.0" y="50.0" text-anchor="middle" dominant-baseline="middle" font-size="12" fill="#111">Raíz</text><text x="741.2" y="410.0" text-anchor="middle" dominant-baseline="middle" font-size="14" fill="#111">a</text><text x="1136.2" y="410.0" text-anchor="middle" dominant-baseline="middle" font-size="14" fill="#111"> </text><text x="115.8" y="530.0" text-anchor="middle" dominant-baseline="middle" font-size="14" fill="#111">f</text><text x="379.2" y="530.0" text-anchor="middle" dominant-baseline="middle" font-size="14" fill="#111">t</text><text x="510.8" y="530.0" text-anchor="middle" dominant-baseline="middle" font-size="14" fill="#111">o</text><text x="774.2" y="530.0" text-anchor="middle" dominant-baseline="middle" font-size="14" fill="#111">s</text><text x="1037.5" y="530.0" text-anchor="middle" dominant-baseline="middle" font-size="14" fill="#111">i</text><text x="1169.2" y="530.0" text-anchor="middle" dominant-baseline="middle" font-size="14" fill="#111">c</text><text x="1300.8" y="530.0" text-anchor="middle" dominant-baseline="middle" font-size="14" fill="#111">n</text><text x="1432.5" y="530.0" text-anchor="middle" dominant-baseline="middle" font-size="14" fill="#111">e</text><text x="1564.2" y="530.0" text-anchor="middle" dominant-baseline="middle" font-size="14" fill="#111">d</text><text x="181.7" y="650.0" text-anchor="middle" dominant-baseline="middle" font-size="14" fill="#111">L</text><text x="445.0" y="650.0" text-anchor="middle" dominant-baseline="middle" font-size="14" fill="#111">u</text><text x="708.3" y="650.0" text-anchor="middle" dominant-baseline="middle" font-size="14" fill="#111">l</text><text x="971.7" y="650.0" text-anchor="middle" dominant-baseline="middle" font-size="14" fill="#111">.</text><text x="1235.0" y="650.0" text-anchor="middle" dominant-baseline="middle" font-size="14" fill="#111">m</text><text x="1498.3" y="650.0" text-anchor="middle" dominant-baseline="middle" font-size="14" fill="#111">ó</text>
                  </svg>