<svg xmlns="http://www.w3.org/2000/svg" width="1120" height="700" viewBox="0 0 1120 700">
                    <defs>
                      <marker id="arrow" markerWidth="8" markerHeight="8" refX="6" refY="3" orient="auto">
                        <path d="M0,0 L0,6 L6,3 z" fill="#444" />
                      </marker>
                    </defs>
                    <rect width="100%" height="100%" fill="#ffffff"/>
                    <text x="20" y="25" font-size="18" font-weight="bold" fill="#111">Árbol de Huffman</text>
                    <line x1="560.0" y1="50.0" x2="305.0" y2="170.0" stroke="#444" stroke-width="2" marker-end="url(#arrow)" /><text x="432.5" y="102.0" text-anchor="middle" font-size="12" fill="#222">0</text><line x1="560.0" y1="50.0" x2="815.0" y2="170.0" stroke="#444" stroke-width="2" marker-end="url(#arrow)" /><text x="687.5" y="102.0" text-anchor="middle" font-size="12" fill="#222">1</text><line x1="305.0" y1="170.0" x2="177.5" y2="290.0" stroke="#444" stroke-width="2" marker-end="url(#arrow)" /><text x="241.2" y="222.0" text-anchor="middle" font-size="12" fill="#222">0</text><line x1="305.0" y1="170.0" x2="432.5" y2="290.0" stroke="#444" stroke-width="2" marker-end="url(#arrow)" /><text x="368.8" y="222.0" text-anchor="middle" font-size="12" fill="#222">1</text><line x1="815.0" y1="170.0" x2="687.5" y2="290.0" stroke="#444" stroke-width="2" marker-end="url(#arrow)" /><text x="751.2" y="222.0" text-anchor="middle" font-size="12" fill="#222">0</text><line x1="815.0" y1="170.0" x2="942.5" y2="290.0" stroke="#444" stroke-width="2" marker-end="url(#arrow)" /><text x="878.8" y="222.0" text-anchor="middle" font-size="12" fill="#222">1</text><line x1="432.5" y1="290.0" x2="135.0" y2="410.0" stroke="#444" stroke-width="2" marker-end="url(#arrow)" /><text x="283.8" y="342.0" text-anchor="middle" font-size="12" fill="#222">0</text><line x1="432.5" y1="290.0" x2="305.0" y2="410.0" stroke="#444" stroke-width="2" marker-end="url(#arrow)" /><text x="368.8" y="342.0" text-anchor="middle" font-size="12" fill="#222">1</text><line x1="687.5" y1="290.0" x2="475.0" y2="410.0" stroke="#444" stroke-width="2" marker-end="url(#arrow)" /><text x="581.2" y="342.0" text-anchor="middle" font-size="12" fill="#222">0</text><line x1="687.5" y1="290.0" x2="645.0" y2="410.0" stroke="#444" stroke-width="2" marker-end="url(#arrow)" /><text x="666.2" y="342.0" text-anchor="middle" font-size="12" fill="#222">1</text><line x1="942.5" y1="290.0" x2="815.0" y2="410.0" stroke="#444" stroke-width="2" marker-end="url(#arrow)" /><text x="878.8" y="342.0" text-anchor="middle" font-size="12" fill="#222">0</text><line x1="942.5" y1="290.0" x2="985.0" y2="410.0" stroke="#444" stroke-width="2" marker-end="url(#arrow)" /><text x="963.8" y="342.0" text-anchor="middle" font-size="12" fill="#222">1</text><line x1="135.0" y1="410.0" x2="113.8" y2="530.0" stroke="#444" stroke-width="2" marker-end="url(#arrow)" /><text x="124.4" y="462.0" text-anchor="middle" font-size="12" fill="#222">0</text><line x1="135.0" y1="410.0" x2="241.2" y2="530.0" stroke="#444" stroke-width="2" marker-end="url(#arrow)" /><text x="188.1" y="462.0" text-anchor="middle" font-size="12" fill="#222">1</text><line x1="305.0" y1="410.0" x2="368.8" y2="530.0" stroke="#444" stroke-width="2" marker-end="url(#arrow)" /><text x="336.9" y="462.0" text-anchor="middle" font-size="12" fill="#222">0</text><line x1="305.0" y1="410.0" x2="496.2" y2="530.0" stroke="#444" stroke-width="2" marker-end="url(#arrow)" /><text x="400.6" y="462.0" text-anchor="middle" font-size="12" fill="#222">1</text><line x1="645.0" y1="410.0" x2="623.8" y2="530.0" stroke="#444" stroke-width="2" marker-end="url(#arrow)" /><text x="634.4" y="462.0" text-anchor="middle" font-size="12" fill="#222">0</text><line x1="645.0" y1="410.0" x2="751.2" y2="530.0" stroke="#444" stroke-width="2" marker-end="url(#arrow)" /><text x="698.1" y="462.0" text-anchor="middle" font-size="12" fill="#222">1</text><line x1="985.0" y1="410.0" x2="878.8" y2="530.0" stroke="#444" stroke-width="2" marker-end="url(#arrow)" /><text x="931.9" y="462.0" text-anchor="middle" font-size="12" fill="#222">0</text><line x1="985.0" y1="410.0" x2="1006.2" y2="530.0" stroke="#444" stroke-width="2" marker-end="url(#arrow)" /><text x="995.6" y="462.0" text-anchor="middle" font-size="12" fill="#222">1</text>
                    <ellipse cx="560.0" cy="50.0" rx="22" ry="22" fill="#f3f4f6" stroke="#111" stroke-width="2" /><ellipse cx="305.0" cy="170.0" rx="18" ry="18" fill="#eef2ff" stroke="#6b7280" stroke-width="1.5" /><ellipse cx="815.0" cy="170.0" rx="18" ry="18" fill="#eef2ff" stroke="#6b7280" stroke-width="1.5" /><ellipse cx="177.5" cy="290.0" rx="22" ry="22" fill="#dbeafe" stroke="#1d4ed8" stroke-width="2" /><ellipse cx="432.5" cy="290.0" rx="18" ry="18" fill="#eef2ff" stroke="#6b7280" stroke-width="1.5" /><ellipse cx="687.5" cy="290.0" rx="18" ry="18" fill="#eef2ff" stroke="#6b7280" stroke-width="1.5" /><ellipse cx="942.5" cy="290.0" rx="18" ry="18" fill="#eef2ff" stroke="#6b7280" stroke-width="1.5" /><ellipse cx="135.0" cy="410.0" rx="18" ry="18" fill="#eef2ff" stroke="#6b7280" stroke-width="1.5" /><ellipse cx="305.0" cy="410.0" rx="18" ry="18" fill="#eef2ff" stroke="#6b7280" stroke-width="1.5" /><ellipse cx="475.0" cy="410.0" rx="22" ry="22" fill="#dbeafe" stroke="#1d4ed8" stroke-width="2" /><ellipse cx="645.0" cy="410.0" rx="18" ry="18" fill="#eef2ff" stroke="#6b7280" stroke-width="1.5" /><ellipse cx="815.0" cy="410.0" rx="22" ry="22" fill="#dbeafe" stroke="#1d4ed8" stroke-width="2" /><ellipse cx="985.0" cy="410.0" rx="18" ry="18" fill="#eef2ff" stroke="#6b7280" stroke-width="1.5" /><ellipse cx="113.8" cy="530.0" rx="22" ry="22" fill="#dbeafe" stroke="#1d4ed8" stroke-width="2" /><ellipse cx="241.2" cy="530.0" rx="22" ry="22" fill="#dbeafe" stroke="#1d4ed8" stroke-width="2" /><ellipse cx="368.8" cy="530.0" rx="22" ry="22" fill="#dbeafe" stroke="#1d4ed8" stroke-width="2" /><ellipse cx="496.2" cy="530.0" rx="22" ry="22" fill="#dbeafe" stroke="#1d4ed8" stroke-width="2" /><ellipse cx="623.8" cy="530.0" rx="22" ry="22" fill="#dbeafe" stroke="#1d4ed8" stroke-width="2" /><ellipse cx="751.2" cy="530.0" rx="22" ry="22" fill="#dbeafe" stroke="#1d4ed8" stroke-width="2" /><ellipse cx="878.8" cy="530.0" rx="22" ry="22" fill="#dbeafe" stroke="#1d4ed8" stroke-width="2" /><ellipse cx="1006.2" cy="530.0" rx="22" ry="22" fill="#dbeafe" stroke="#1d4ed8" stroke-width="2" />
                    <text x="560.0" y="50.0" text-anchor="middle" dominant-baseline="middle" font-size="12" fill="#111">Raíz</text><text x="177.5" y="290.0" text-anchor="middle" dominant-baseline="middle" font-size="14" fill="#111">o</text><text x="475.0" y="410.0" text-anchor="middle" dominant-baseline="middle" font-size="14" fill="#111">s</text><text x="815.0" y="410.0" text-anchor="middle" dominant-baseline="middle" font-size="14" fill="#111">a</text><text x="113.8" y="530.0" text-anchor="middle" dominant-baseline="middle" font-size="14" fill="#111">c</text><text x="241.2" y="530.0" text-anchor="middle" dominant-baseline="middle" font-size="14" fill="#111">e</text><text x="368.8" y="530.0" text-anchor="middle" dominant-baseline="middle" font-size="14" fill="#111">m</text><text x="496.2" y="530.0" text-anchor="middle" dominant-baseline="middle" font-size="14" fill="#111">?</text><text x="623.8" y="530.0" text-anchor="middle" dominant-baseline="middle" font-size="14" fill="#111">h</text><text x="751.2" y="530.0" text-anchor="middle" dominant-baseline="middle" font-size="14" fill="#111">l</text><text x="878.8" y="530.0" text-anchor="middle" dominant-baseline="middle" font-size="14" fill="#111">t</text><text x="1006.2" y="530.0" text-anchor="middle" dominant-baseline="middle" font-size="14" fill="#111"> </text>
                  </svg>