<svg xmlns="http://www.w3.org/2000/svg" width="1000" height="560" viewBox="0 0 1000 560">
                    <defs>
                      <marker id="arrow" markerWidth="8" markerHeight="8" refX="6" refY="3" orient="auto">
                        <path d="M0,0 L0,6 L6,3 z" fill="#444" />
                      </marker>
                    </defs>
                    <rect width="100%" height="100%" fill="#ffffff"/>
                    <text x="20" y="25" font-size="18" font-weight="bold" fill="#111">Árbol de Shannon-Fano</text>
                    <line x1="500.0" y1="50.0" x2="275.0" y2="170.0" stroke="#444" stroke-width="2" marker-end="url(#arrow)" /><text x="387.5" y="102.0" text-anchor="middle" font-size="12" fill="#222">0</text><line x1="500.0" y1="50.0" x2="725.0" y2="170.0" stroke="#444" stroke-width="2" marker-end="url(#arrow)" /><text x="612.5" y="102.0" text-anchor="middle" font-size="12" fill="#222">1</text><line x1="275.0" y1="170.0" x2="162.5" y2="290.0" stroke="#444" stroke-width="2" marker-end="url(#arrow)" /><text x="218.8" y="222.0" text-anchor="middle" font-size="12" fill="#222">0</text><line x1="275.0" y1="170.0" x2="387.5" y2="290.0" stroke="#444" stroke-width="2" marker-end="url(#arrow)" /><text x="331.2" y="222.0" text-anchor="middle" font-size="12" fill="#222">1</text><line x1="725.0" y1="170.0" x2="612.5" y2="290.0" stroke="#444" stroke-width="2" marker-end="url(#arrow)" /><text x="668.8" y="222.0" text-anchor="middle" font-size="12" fill="#222">0</text><line x1="725.0" y1="170.0" x2="837.5" y2="290.0" stroke="#444" stroke-width="2" marker-end="url(#arrow)" /><text x="781.2" y="222.0" text-anchor="middle" font-size="12" fill="#222">1</text><line x1="837.5" y1="290.0" x2="275.0" y2="410.0" stroke="#444" stroke-width="2" marker-end="url(#arrow)" /><text x="556.2" y="342.0" text-anchor="middle" font-size="12" fill="#222">0</text><line x1="837.5" y1="290.0" x2="725.0" y2="410.0" stroke="#444" stroke-width="2" marker-end="url(#arrow)" /><text x="781.2" y="342.0" text-anchor="middle" font-size="12" fill="#222">1</text>
                    <ellipse cx="500.0" cy="50.0" rx="22" ry="22" fill="#f3f4f6" stroke="#111" stroke-width="2" /><ellipse cx="275.0" cy="170.0" rx="18" ry="18" fill="#eef2ff" stroke="#6b7280" stroke-width="1.5" /><ellipse cx="725.0" cy="170.0" rx="18" ry="18" fill="#eef2ff" stroke="#6b7280" stroke-width="1.5" /><ellipse cx="162.5" cy="290.0" rx="22" ry="22" fill="#dbeafe" stroke="#1d4ed8" stroke-width="2" /><ellipse cx="387.5" cy="290.0" rx="22" ry="22" fill="#dbeafe" stroke="#1d4ed8" stroke-width="2" /><ellipse cx="612.5" cy="290.0" rx="22" ry="22" fill="#dbeafe" stroke="#1d4ed8" stroke-width="2" /><ellipse cx="837.5" cy="290.0" rx="18" ry="18" fill="#eef2ff" stroke="#6b7280" stroke-width="1.5" /><ellipse cx="275.0" cy="410.0" rx="22" ry="22" fill="#dbeafe" stroke="#1d4ed8" stroke-width="2" /><ellipse cx="725.0" cy="410.0" rx="22" ry="22" fill="#dbeafe" stroke="#1d4ed8" stroke-width="2" />
                    <text x="500.0" y="50.0" text-anchor="middle" dominant-baseline="middle" font-size="12" fill="#111">Raíz</text><text x="162.5" y="290.0" text-anchor="middle" dominant-baseline="middle" font-size="14" fill="#111">s</text><text x="387.5" y="290.0" text-anchor="middle" dominant-baseline="middle" font-size="14" fill="#111">d</text><text x="612.5" y="290.0" text-anchor="middle" dominant-baseline="middle" font-size="14" fill="#111">f</text><text x="275.0" y="410.0" text-anchor="middle" dominant-baseline="middle" font-size="14" fill="#111">a</text><text x="725.0" y="410.0" text-anchor="middle" dominant-baseline="middle" font-size="14" fill="#111">g</text>
                  </svg>